<svg version="1.1" xmlns="http://www.w3.org/2000/svg" viewBox="0 0 960.1200103759766 296" width="1920.2400207519531" height="592">
  <!-- svg-source:excalidraw -->
  
  <defs>
    <style class="style-fonts">
      @font-face {
        font-family: "Virgil";
        src: url("https://excalidraw.com/Virgil.woff2");
      }
      @font-face {
        font-family: "Cascadia";
        src: url("https://excalidraw.com/Cascadia.woff2");
      }
    </style>
    
  </defs>
  <rect x="0" y="0" width="960.1200103759766" height="296" fill="#ffffff"></rect><g stroke-linecap="round" transform="translate(10 31) rotate(0 106 43)"><path d="M21.5 0 M21.5 0 C59.63 -1.92, 97.18 -1.35, 190.5 0 M21.5 0 C79.89 0.8, 138.72 2.42, 190.5 0 M190.5 0 C204.58 -1.45, 212.38 5.36, 212 21.5 M190.5 0 C205.38 -1.58, 212.49 5.27, 212 21.5 M212 21.5 C209.8 33.43, 213.14 42.48, 212 64.5 M212 21.5 C211.99 36.27, 212.03 49.9, 212 64.5 M212 64.5 C213.58 78.81, 205.73 84.22, 190.5 86 M212 64.5 C212.87 78.94, 204.69 83.9, 190.5 86 M190.5 86 C126.43 84.33, 64.1 85.71, 21.5 86 M190.5 86 C134.6 86.37, 77.58 86.67, 21.5 86 M21.5 86 C7.92 85.05, 0.87 77.12, 0 64.5 M21.5 86 C6 87.26, 0.79 77.22, 0 64.5 M0 64.5 C1.44 53.42, -1.39 39.08, 0 21.5 M0 64.5 C0.53 52.23, -0.82 38.92, 0 21.5 M0 21.5 C1.12 6.55, 8.21 0.29, 21.5 0 M0 21.5 C1.09 7.91, 7.03 0.6, 21.5 0" stroke="#1e1e1e" stroke-width="1" fill="none"></path></g><g transform="translate(30.75 49) rotate(0 85.25 25)"><text x="85.25" y="0" font-family="Virgil, Segoe UI Emoji" font-size="20px" fill="#1e1e1e" text-anchor="middle" style="white-space: pre;" direction="ltr" dominant-baseline="text-before-edge">Heart Disease</text><text x="85.25" y="25" font-family="Virgil, Segoe UI Emoji" font-size="20px" fill="#1e1e1e" text-anchor="middle" style="white-space: pre;" direction="ltr" dominant-baseline="text-before-edge">Patient Dataset</text></g><g stroke-linecap="round" transform="translate(365 29) rotate(0 106 43)"><path d="M21.5 0 M21.5 0 C81.11 1.08, 139.43 0.59, 190.5 0 M21.5 0 C72.43 0.46, 123.35 0.96, 190.5 0 M190.5 0 C204.66 1.98, 213.44 5.71, 212 21.5 M190.5 0 C205.31 0.82, 211.13 5.22, 212 21.5 M212 21.5 C213.17 32.03, 213.41 43.69, 212 64.5 M212 21.5 C211.6 37.51, 212.08 53.04, 212 64.5 M212 64.5 C211.85 78.96, 203.1 85.99, 190.5 86 M212 64.5 C213.53 78.71, 203.98 86.42, 190.5 86 M190.5 86 C149.55 85.19, 111.01 85.22, 21.5 86 M190.5 86 C136.05 87.48, 83.03 86.15, 21.5 86 M21.5 86 C8.03 86.96, -1.89 79.37, 0 64.5 M21.5 86 C5.78 84.38, 1.57 77.45, 0 64.5 M0 64.5 C0.9 51.3, 1.31 36.43, 0 21.5 M0 64.5 C0.2 55.8, 0.8 45.65, 0 21.5 M0 21.5 C1.52 7.77, 6.05 -1.75, 21.5 0 M0 21.5 C-2.17 6.69, 7.75 2.17, 21.5 0" stroke="#1e1e1e" stroke-width="1" fill="none"></path></g><g transform="translate(384.2999954223633 47) rotate(0 86.70000457763672 25)"><text x="86.70000457763672" y="0" font-family="Virgil, Segoe UI Emoji" font-size="20px" fill="#1e1e1e" text-anchor="middle" style="white-space: pre;" direction="ltr" dominant-baseline="text-before-edge">RFE Optimal </text><text x="86.70000457763672" y="25" font-family="Virgil, Segoe UI Emoji" font-size="20px" fill="#1e1e1e" text-anchor="middle" style="white-space: pre;" direction="ltr" dominant-baseline="text-before-edge">Feature Selection</text></g><g stroke-linecap="round" transform="translate(721 10) rotate(0 106 60)"><path d="M30 0 M30 0 C85.58 -1.11, 144.46 0.9, 182 0 M30 0 C77.49 0.8, 123.94 -0.13, 182 0 M182 0 C201.31 -0.8, 213.3 10.09, 212 30 M182 0 C201.39 -1.78, 213.57 10.88, 212 30 M212 30 C213.05 52.87, 211.42 71.07, 212 90 M212 30 C211.97 49.87, 211.86 69.11, 212 90 M212 90 C210.57 110.6, 200.32 120.31, 182 120 M212 90 C212.07 112.29, 200.72 121.1, 182 120 M182 120 C149.55 119.6, 121.91 118.81, 30 120 M182 120 C127.21 120.92, 71.66 120.32, 30 120 M30 120 C8.48 119.28, -1.31 111.75, 0 90 M30 120 C10.92 117.76, 0.04 110.9, 0 90 M0 90 C0.17 72.43, 1.25 56.88, 0 30 M0 90 C-0.51 75.09, 0.64 60.63, 0 30 M0 30 C1.41 9.7, 10.91 -0.09, 30 0 M0 30 C0.57 9.99, 7.82 0.28, 30 0" stroke="#1e1e1e" stroke-width="1" fill="none"></path></g><g transform="translate(728.2099914550781 32.5) rotate(0 98.79000854492188 37.5)"><text x="98.79000854492188" y="0" font-family="Virgil, Segoe UI Emoji" font-size="20px" fill="#1e1e1e" text-anchor="middle" style="white-space: pre;" direction="ltr" dominant-baseline="text-before-edge">Final Binary </text><text x="98.79000854492188" y="25" font-family="Virgil, Segoe UI Emoji" font-size="20px" fill="#1e1e1e" text-anchor="middle" style="white-space: pre;" direction="ltr" dominant-baseline="text-before-edge">Classifier For Heart</text><text x="98.79000854492188" y="50" font-family="Virgil, Segoe UI Emoji" font-size="20px" fill="#1e1e1e" text-anchor="middle" style="white-space: pre;" direction="ltr" dominant-baseline="text-before-edge">Disease Diagnosis</text></g><g stroke-linecap="round"><g transform="translate(245 76) rotate(0 47.894211529567826 0.3762339162670969)"><path d="M-1.04 -0.82 C15.27 -1.04, 80.64 -0.17, 96.83 -0.22 M0.62 1.37 C16.93 1.85, 80.51 1.49, 96.31 1.21" stroke="#1e1e1e" stroke-width="1" fill="none"></path></g><g transform="translate(245 76) rotate(0 47.894211529567826 0.3762339162670969)"><path d="M66.87 13.13 C73.8 9.91, 78.4 7.87, 95.1 1.19 M67.45 12.47 C75.99 9.82, 82.69 7.22, 96.95 0.43" stroke="#1e1e1e" stroke-width="1" fill="none"></path></g><g transform="translate(245 76) rotate(0 47.894211529567826 0.3762339162670969)"><path d="M66.66 -7.39 C73.83 -6.2, 78.47 -3.84, 95.1 1.19 M67.25 -8.05 C75.64 -5.78, 82.4 -3.47, 96.95 0.43" stroke="#1e1e1e" stroke-width="1" fill="none"></path></g></g><mask></mask><g stroke-linecap="round"><g transform="translate(598 72) rotate(0 47.17531598076232 0.11370166621892963)"><path d="M0.65 -0.95 C15.96 -0.61, 77.22 1.09, 92.41 1.13 M-0.46 1.17 C15.19 1.28, 79.06 -0.24, 94.82 -0.39" stroke="#1e1e1e" stroke-width="1" fill="none"></path></g><g transform="translate(598 72) rotate(0 47.17531598076232 0.11370166621892963)"><path d="M65.23 9.37 C78.56 4.45, 85.28 3.47, 96.73 1.08 M66.9 9.74 C77.13 7.28, 88.21 2.94, 94.19 0.15" stroke="#1e1e1e" stroke-width="1" fill="none"></path></g><g transform="translate(598 72) rotate(0 47.17531598076232 0.11370166621892963)"><path d="M64.87 -11.14 C78.17 -8.9, 85.02 -2.73, 96.73 1.08 M66.54 -10.78 C76.87 -5.38, 88.09 -1.87, 94.19 0.15" stroke="#1e1e1e" stroke-width="1" fill="none"></path></g></g><mask></mask><g transform="translate(21 144) rotate(0 111.6300048828125 50)"><text x="0" y="0" font-family="Virgil, Segoe UI Emoji" font-size="20px" fill="#1e1e1e" text-anchor="start" style="white-space: pre;" direction="ltr" dominant-baseline="text-before-edge">Transforms only</text><text x="0" y="25" font-family="Virgil, Segoe UI Emoji" font-size="20px" fill="#1e1e1e" text-anchor="start" style="white-space: pre;" direction="ltr" dominant-baseline="text-before-edge">applied to numeric</text><text x="0" y="50" font-family="Virgil, Segoe UI Emoji" font-size="20px" fill="#1e1e1e" text-anchor="start" style="white-space: pre;" direction="ltr" dominant-baseline="text-before-edge">data since categorical</text><text x="0" y="75" font-family="Virgil, Segoe UI Emoji" font-size="20px" fill="#1e1e1e" text-anchor="start" style="white-space: pre;" direction="ltr" dominant-baseline="text-before-edge">is ordinal encoded</text></g><g transform="translate(707 155) rotate(0 121.56000518798828 37.5)"><text x="0" y="0" font-family="Virgil, Segoe UI Emoji" font-size="20px" fill="#1e1e1e" text-anchor="start" style="white-space: pre;" direction="ltr" dominant-baseline="text-before-edge">Could be decision tree</text><text x="0" y="25" font-family="Virgil, Segoe UI Emoji" font-size="20px" fill="#1e1e1e" text-anchor="start" style="white-space: pre;" direction="ltr" dominant-baseline="text-before-edge">or logistic regression</text><text x="0" y="50" font-family="Virgil, Segoe UI Emoji" font-size="20px" fill="#1e1e1e" text-anchor="start" style="white-space: pre;" direction="ltr" dominant-baseline="text-before-edge">depending on performance</text></g><g transform="translate(377 136) rotate(0 113.2699966430664 75)"><text x="0" y="0" font-family="Virgil, Segoe UI Emoji" font-size="20px" fill="#1e1e1e" text-anchor="start" style="white-space: pre;" direction="ltr" dominant-baseline="text-before-edge">Use of RFE to select</text><text x="0" y="25" font-family="Virgil, Segoe UI Emoji" font-size="20px" fill="#1e1e1e" text-anchor="start" style="white-space: pre;" direction="ltr" dominant-baseline="text-before-edge">optimal features will</text><text x="0" y="50" font-family="Virgil, Segoe UI Emoji" font-size="20px" fill="#1e1e1e" text-anchor="start" style="white-space: pre;" direction="ltr" dominant-baseline="text-before-edge">become part of pipeline</text><text x="0" y="75" font-family="Virgil, Segoe UI Emoji" font-size="20px" fill="#1e1e1e" text-anchor="start" style="white-space: pre;" direction="ltr" dominant-baseline="text-before-edge">and any final classifier</text><text x="0" y="100" font-family="Virgil, Segoe UI Emoji" font-size="20px" fill="#1e1e1e" text-anchor="start" style="white-space: pre;" direction="ltr" dominant-baseline="text-before-edge">must include RFE as</text><text x="0" y="125" font-family="Virgil, Segoe UI Emoji" font-size="20px" fill="#1e1e1e" text-anchor="start" style="white-space: pre;" direction="ltr" dominant-baseline="text-before-edge">part of pre processing</text></g></svg>